<?xml version="1.0" encoding="UTF-8" standalone="no"?>
<!-- Created with Inkscape (http://www.inkscape.org/) -->

<svg
   xmlns:dc="http://purl.org/dc/elements/1.1/"
   xmlns:cc="http://creativecommons.org/ns#"
   xmlns:rdf="http://www.w3.org/1999/02/22-rdf-syntax-ns#"
   xmlns:svg="http://www.w3.org/2000/svg"
   xmlns="http://www.w3.org/2000/svg"
   xmlns:sodipodi="http://sodipodi.sourceforge.net/DTD/sodipodi-0.dtd"
   xmlns:inkscape="http://www.inkscape.org/namespaces/inkscape"
   width="80"
   height="80"
   viewBox="0 0 80.000001 80.000001"
   id="svg2"
   version="1.1"
   inkscape:version="0.91 r13725"
   sodipodi:docname="ionic_gray.svg">
  <defs
     id="defs4">
    <clipPath
       clipPathUnits="userSpaceOnUse"
       id="clipPath4189">
      <rect
         style="opacity:0.2;fill:#4a2f8f;fill-opacity:1;stroke:none;stroke-width:0.5;stroke-miterlimit:4;stroke-dasharray:none;stroke-opacity:0.72835819"
         id="rect4191"
         width="80"
         height="80"
         x="0"
         y="972.36218" />
    </clipPath>
  </defs>
  <sodipodi:namedview
     id="base"
     pagecolor="#ffffff"
     bordercolor="#666666"
     borderopacity="1.0"
     inkscape:pageopacity="0.0"
     inkscape:pageshadow="2"
     inkscape:zoom="5.6"
     inkscape:cx="-53.987403"
     inkscape:cy="41.82432"
     inkscape:document-units="px"
     inkscape:current-layer="layer1"
     showgrid="false"
     units="px"
     inkscape:window-width="1920"
     inkscape:window-height="1027"
     inkscape:window-x="1912"
     inkscape:window-y="-8"
     inkscape:window-maximized="1" />
  <metadata
     id="metadata7">
    <rdf:RDF>
      <cc:Work
         rdf:about="">
        <dc:format>image/svg+xml</dc:format>
        <dc:type
           rdf:resource="http://purl.org/dc/dcmitype/StillImage" />
        <dc:title />
      </cc:Work>
    </rdf:RDF>
  </metadata>
  <g
     inkscape:label="Layer 1"
     inkscape:groupmode="layer"
     id="layer1"
     transform="translate(0,-972.36216)">
    <path
       style="fill:#b3b3b3"
       d="m 38.319465,1052.3344 c -0.543851,-0.028 -0.839769,-0.068 -0.703807,-0.095 0.182259,-0.036 0.143165,-0.049 -0.175238,-0.058 -0.789186,-0.023 -2.808508,-0.2592 -4.164903,-0.488 -13.775246,-2.3237 -25.4596664,-11.9029 -30.527266,-25.027 -0.88458,-2.2909 -1.6635781,-5.1345 -2.07542785,-7.5761 -0.23202633,-1.3755 -0.46825249,-3.4021 -0.48547313,-4.1649 -0.007549,-0.3344 -0.0190319,-0.3667 -0.0623647,-0.1753 -0.03085301,0.1363 -0.07494922,-0.3143 -0.10521632,-1.0753 -0.05687963,-1.4298 0.01851866,-4.0779 0.10521632,-3.695 0.0433328,0.1914 0.0548161,0.1592 0.0623647,-0.1752 0.0172142,-0.7628 0.2534468,-2.7895 0.48547313,-4.165 1.97280325,-11.69534 9.19631725,-21.99236 19.60902285,-27.95237 3.989397,-2.28345 8.472688,-3.88812 12.993671,-4.65075 1.375504,-0.23204 3.402107,-0.46827 4.164903,-0.48549 0.334272,-0.007 0.366583,-0.019 0.175238,-0.0623 -0.387931,-0.0878 2.31486,-0.16342 3.753635,-0.10506 0.731177,0.0296 1.206247,0.0739 1.055711,0.0984 -0.176,0.0286 0.05343,0.0645 0.642719,0.10067 4.679365,0.28688 9.726027,1.6571 14.371825,3.9021 1.342846,0.64891 1.435724,0.70723 1.293643,0.81246 -1.560603,1.15586 -2.9522,2.84745 -3.842655,4.67103 l -0.43828,0.89754 -0.989228,-0.44892 c -3.181402,-1.44381 -6.619105,-2.36678 -10.256017,-2.75361 -1.4626,-0.15557 -5.289251,-0.1322 -6.764364,0.0413 -7.745572,0.91102 -14.683979,4.31879 -20.019913,9.83272 -5.102717,5.27292 -8.2054028,11.85538 -9.0827294,19.26948 -0.1950275,1.6481 -0.1950275,5.4682 0,7.1163 0.3839755,3.2449 1.2083849,6.4024 2.4055077,9.2132 4.3577817,10.2317 13.5444037,17.5752 24.4684147,19.5593 2.065814,0.3752 3.2267,0.4694 5.786855,0.4694 1.791656,0 2.676989,-0.035 3.558132,-0.1388 4.070011,-0.4817 7.621049,-1.5403 11.18271,-3.3339 9.236234,-4.6513 15.739448,-13.3547 17.589383,-23.5404 0.375201,-2.0659 0.46936,-3.2268 0.46936,-5.7869 0,-2.5602 -0.09416,-3.7211 -0.46936,-5.787 -0.38796,-2.1361 -1.068298,-4.505 -1.829015,-6.3687 -0.174509,-0.42754 -0.290544,-0.80211 -0.257856,-0.83235 0.03269,-0.0303 0.400976,-0.19657 0.81842,-0.36954 1.566242,-0.64909 3.256208,-1.83421 4.376995,-3.06946 0.309888,-0.34155 0.584058,-0.62098 0.609264,-0.62098 0.06023,0 0.762461,1.60024 1.201095,2.73705 0.847553,2.19668 1.652041,5.08838 2.045267,7.35178 0.224224,1.2906 0.505247,3.6401 0.519034,4.3393 0.007,0.3576 0.0219,0.4135 0.0624,0.2347 0.0306,-0.1351 0.0747,0.3313 0.103967,1.0995 0.05571,1.4623 -0.01758,4.0515 -0.103905,3.6708 -0.04344,-0.1915 -0.0549,-0.1594 -0.06246,0.1753 -0.01721,0.7628 -0.253449,2.7894 -0.485471,4.1649 -2.323679,13.7754 -11.902737,25.46 -25.026699,30.5277 -2.290864,0.8846 -5.13447,1.6636 -7.575996,2.0754 -1.375504,0.2321 -3.402108,0.4683 -4.164903,0.4855 -0.35058,0.01 -0.375918,0.018 -0.175239,0.069 0.182931,0.046 0.121079,0.062 -0.280818,0.069 -0.283483,0.01 -1.040075,0.022 -1.681317,0.038 -0.641241,0.016 -1.588177,0.01 -2.104303,-0.02 z m 0.351904,-21.9064 c -3.562856,-0.2801 -6.806702,-1.5175 -9.696893,-3.699 -0.953313,-0.7195 -2.61892,-2.3852 -3.338451,-3.3385 -1.918976,-2.5425 -3.081894,-5.2945 -3.552445,-8.4067 -0.230754,-1.5262 -0.230754,-3.7133 0,-5.2395 0.59715,-3.9495 2.312668,-7.3491 5.130578,-10.16702 2.820344,-2.82039 6.214022,-4.53298 10.166897,-5.13066 1.526168,-0.23076 3.713283,-0.23076 5.239451,0 3.952875,0.59768 7.346555,2.31027 10.166899,5.13066 2.820344,2.82032 4.532916,6.21412 5.130578,10.16702 0.230754,1.5262 0.230754,3.7133 0,5.2395 -0.597662,3.953 -2.310234,7.3467 -5.130578,10.1671 -2.331928,2.3319 -5.062307,3.908 -8.205502,4.7366 -1.733029,0.4569 -4.156249,0.6785 -5.910534,0.5405 z m 26.641288,-34.88136 c -1.929212,-0.21372 -3.655614,-1.07955 -5.025922,-2.52063 -1.511485,-1.58954 -2.221582,-3.38215 -2.221582,-5.60831 0,-1.17467 0.126239,-1.90452 0.503729,-2.91239 0.716105,-1.91194 2.363079,-3.67714 4.21387,-4.51632 2.55189,-1.15711 5.675299,-0.91036 7.960453,0.62887 0.682712,0.45985 1.709193,1.47266 2.16954,2.14062 0.974635,1.4142 1.43644,2.89226 1.443492,4.6201 0.0073,1.79475 -0.472133,3.32524 -1.496074,4.7757 -1.685109,2.38701 -4.63876,3.7146 -7.547506,3.39236 z"
       id="path4745-2"
       inkscape:connector-curvature="0" />
  </g>
</svg>
