<?xml version="1.0" encoding="UTF-8" standalone="no"?>
<!-- Created with Inkscape (http://www.inkscape.org/) -->

<svg
   xmlns:dc="http://purl.org/dc/elements/1.1/"
   xmlns:cc="http://creativecommons.org/ns#"
   xmlns:rdf="http://www.w3.org/1999/02/22-rdf-syntax-ns#"
   xmlns:svg="http://www.w3.org/2000/svg"
   xmlns="http://www.w3.org/2000/svg"
   xmlns:sodipodi="http://sodipodi.sourceforge.net/DTD/sodipodi-0.dtd"
   xmlns:inkscape="http://www.inkscape.org/namespaces/inkscape"
   width="80"
   height="80"
   viewBox="0 0 80.000001 80.000001"
   id="svg2"
   version="1.1"
   inkscape:version="0.91 r13725"
   sodipodi:docname="sqlserver_gray.svg">
  <defs
     id="defs4">
    <filter
       style="color-interpolation-filters:sRGB;"
       inkscape:label="Greyscale"
       id="filter4138">
      <feColorMatrix
         values="0.21 0.72 0.072 0 0 0.21 0.72 0.072 0 0 0.21 0.72 0.072 0 0 0 0 0 1 0 "
         id="feColorMatrix4140" />
    </filter>
  </defs>
  <sodipodi:namedview
     id="base"
     pagecolor="#ffffff"
     bordercolor="#666666"
     borderopacity="1.0"
     inkscape:pageopacity="0.0"
     inkscape:pageshadow="2"
     inkscape:zoom="5.6"
     inkscape:cx="76.917424"
     inkscape:cy="53.623684"
     inkscape:document-units="px"
     inkscape:current-layer="layer1"
     showgrid="false"
     units="px"
     inkscape:window-width="1920"
     inkscape:window-height="1027"
     inkscape:window-x="-8"
     inkscape:window-y="-8"
     inkscape:window-maximized="1" />
  <metadata
     id="metadata7">
    <rdf:RDF>
      <cc:Work
         rdf:about="">
        <dc:format>image/svg+xml</dc:format>
        <dc:type
           rdf:resource="http://purl.org/dc/dcmitype/StillImage" />
        <dc:title />
      </cc:Work>
    </rdf:RDF>
  </metadata>
  <g
     inkscape:label="Layer 1"
     inkscape:groupmode="layer"
     id="layer1"
     transform="translate(0,-972.36216)">
    <g
       id="g4226"
       transform="translate(2,0.71428572)">
      <path
         style="fill:#cccccc"
         d="m 32.390128,1049.1494 c -4.02943,-0.2287 -8.884373,-0.7161 -10.540691,-1.0581 -0.334464,-0.069 -1.033799,-0.1974 -1.554077,-0.285 -2.532342,-0.4268 -5.271569,-1.2524 -7.162267,-2.1588 -1.522804,-0.73 -2.502387,-1.5045 -2.943875,-2.3275 -0.297876,-0.5553 -0.299612,-0.5983 -0.337429,-8.3576 -0.04124,-8.4608 -0.01423,-8.8324 0.689768,-9.4918 l 0.322368,-0.3019 0.999447,0.5859 c 3.551319,2.0821 10.280184,3.4625 19.580796,4.017 3.96249,0.2362 16.30795,0.01 18.10838,-0.3344 0.18581,-0.035 0.97637,-0.1319 1.75678,-0.2145 0.78042,-0.083 1.723,-0.2071 2.09463,-0.2766 0.37162,-0.07 1.22299,-0.2169 1.89192,-0.3275 1.95598,-0.3233 3.35975,-0.6551 5.47305,-1.2937 1.01454,-0.3066 3.45514,-1.43 4.01895,-1.85 0.48648,-0.3623 0.72934,-0.3294 1.03818,0.1405 0.18118,0.2757 0.20994,1.41 0.22345,8.8143 0.0137,7.5189 -0.009,8.5456 -0.19906,8.9116 -0.23067,0.4448 -1.4357,1.544 -2.02901,1.8509 -2.71457,1.4042 -7.11797,2.6016 -11.63372,3.1636 -0.66893,0.083 -1.5811,0.2032 -2.02705,0.2666 -0.75481,0.1073 -1.80834,0.1819 -7.63525,0.5407 -2.47241,0.1522 -7.32799,0.1457 -10.13529,-0.014 z m -17.557426,-12.1035 c 0.269598,-0.2688 0.395016,-0.5288 0.395016,-0.8188 0,-0.5018 -0.631609,-1.2126 -1.077413,-1.2126 -0.909755,0 -1.502079,0.8704 -1.155346,1.6978 0.332344,0.793 1.216022,0.9534 1.837743,0.3336 z m 18.706096,-11.6015 c -9.139115,-0.3693 -16.468739,-1.6317 -20.379292,-3.5101 -2.062143,-0.9905 -3.10923,-2.0772 -3.268452,-3.3922 -0.04705,-0.3886 -0.06658,-4.1018 -0.0434,-8.2517 0.03815,-6.8296 0.06411,-7.5836 0.273691,-7.9494 0.470568,-0.8215 0.432482,-0.8083 1.070748,-0.3716 2.112032,1.445 5.923212,2.676 10.522205,3.3986 1.96453,0.3087 3.71947,0.537 5.13521,0.668 4.43847,0.4106 5.60256,0.4583 11.21638,0.4588 5.85286,5e-4 8.94521,-0.1468 12.41189,-0.5911 0.56884,-0.073 1.55116,-0.1905 2.18292,-0.2613 1.47942,-0.166 3.09207,-0.4378 4.79737,-0.8087 0.37163,-0.081 0.85812,-0.1787 1.0811,-0.2174 0.22297,-0.039 0.52703,-0.1217 0.67568,-0.1842 0.14866,-0.062 0.84799,-0.2938 1.55408,-0.5141 1.39097,-0.434 3.4645,-1.3728 4.13444,-1.8718 0.47214,-0.3518 0.76507,-0.3926 0.97829,-0.1365 0.10042,0.1207 0.1517,2.8486 0.16491,8.7729 l 0.0192,8.5978 -0.40057,0.5576 c -1.71029,2.3807 -7.66098,4.246 -16.18019,5.0716 -0.8919,0.086 -1.83449,0.1833 -2.09462,0.2151 -2.4574,0.3013 -10.00061,0.4754 -13.85156,0.3197 z m -19.060871,-10.9658 c 0.839999,-0.3499 1.0028,-1.1946 0.354775,-1.8407 -0.647304,-0.6454 -1.495196,-0.4838 -1.8453,0.3516 -0.303443,0.7241 0.113166,1.4232 0.994638,1.6692 0.02097,0.01 0.244118,-0.075 0.495887,-0.1801 z m 16.493271,-11.9468 c -9.893817,-0.6044 -17.607048,-2.4546 -19.98763,-4.79452 -1.161253,-1.14147 -1.093766,-0.5437 -1.093766,-9.68879 l 0,-8.09469 0.411086,-0.66316 c 0.643263,-1.03769 2.142885,-1.83299 4.521419,-2.39787 2.877915,-0.68347 7.613604,-1.42196 11.689361,-1.82286 3.42224,-0.33662 4.50514,-0.41282 8.07396,-0.56809 3.76626,-0.16388 8.51127,-0.0536 12.26418,0.28497 3.51226,0.31688 4.59349,0.42492 5.54062,0.55364 1.61447,0.21943 4.47814,0.67164 5.06764,0.80026 0.2973,0.0649 0.90542,0.18658 1.35137,0.27048 3.57462,0.6725 6.33291,1.67572 6.93844,2.52359 0.26756,0.37463 0.27475,0.58429 0.3025,8.81391 l 0.0284,8.43015 -0.30191,0.62182 c -0.16605,0.34204 -0.55501,0.84004 -0.86436,1.1068 -0.68373,0.5896 -2.89701,1.6649 -4.27873,2.0788 -0.55744,0.16696 -1.34799,0.40746 -1.75678,0.53446 -1.15388,0.3584 -4.44139,1.0057 -5.74333,1.1309 -0.2973,0.029 -0.63176,0.084 -0.74325,0.124 -0.11149,0.04 -0.81082,0.1402 -1.55408,0.2235 -0.74325,0.083 -1.59462,0.1803 -1.89192,0.2157 -3.52399,0.4196 -13.4326,0.5943 -17.97323,0.317 z m -17.09679,-12.11387 c 0.344917,-0.18404 0.583942,-0.95267 0.425484,-1.36821 -0.171358,-0.44936 -0.448555,-0.65299 -1.013335,-0.74437 -0.407817,-0.066 -0.539779,-0.0166 -0.890449,0.333 -0.521011,0.51946 -0.551004,1.11294 -0.07998,1.58257 0.355248,0.35419 1.089694,0.44705 1.558281,0.19701 z m 31.6504,-7.27468 c 10.52748,-0.50887 16.42276,-1.48268 18.26869,-3.0177 0.33985,-0.28261 0.37795,-0.38462 0.29946,-0.80176 -0.15088,-0.80187 -1.10491,-1.42684 -2.91862,-1.91193 -1.55937,-0.41707 -3.96889,-0.86991 -4.63642,-0.87136 -0.45656,-10e-4 -0.62119,-0.0477 -0.55345,-0.15697 0.0559,-0.0902 0.0374,-0.11921 -0.0439,-0.0691 -0.13088,0.0806 -0.62248,0.044 -4.25956,-0.31716 -7.57422,-0.7522 -21.68821,-0.68471 -28.817992,0.1378 -2.76636,0.31913 -3.565925,0.42094 -4.25682,0.54202 -3.835791,0.6722 -5.616064,1.25101 -6.284719,2.0433 -0.388205,0.45998 -0.411747,0.65211 -0.143321,1.16965 0.605408,1.16725 5.354859,2.2779 12.238936,2.86204 5.679426,0.48192 15.474546,0.66343 21.107766,0.39113 z"
         id="path4178"
         inkscape:connector-curvature="0" />
      <path
         style="fill:#b3b3b3"
         d="m 37.168695,1048.1852 c 0.33867,-0.6113 0.99079,-1.7785 1.44915,-2.5937 0.97688,-1.7372 3.99807,-7.8497 3.99807,-8.0888 0,-0.043 0.11532,-0.3318 0.25627,-0.6427 0.63768,-1.4065 1.49733,-3.5043 1.99837,-4.8768 0.18937,-0.5187 0.3954,-1.0068 0.45785,-1.0846 0.0624,-0.078 0.15438,-0.3961 0.2043,-0.7073 l 0.0908,-0.566 1.37913,0 c 0.75852,0 1.70853,-0.057 2.11113,-0.1273 0.40261,-0.07 1.37054,-0.1943 2.15095,-0.2763 0.78042,-0.082 1.723,-0.2058 2.09463,-0.2753 0.37162,-0.07 1.22299,-0.2169 1.89192,-0.3275 1.95598,-0.3233 3.35975,-0.6551 5.47305,-1.2937 1.01454,-0.3066 3.455144,-1.43 4.018954,-1.85 0.48648,-0.3623 0.72934,-0.3294 1.03818,0.1405 0.18118,0.2757 0.20994,1.41 0.22345,8.8143 0.0137,7.5189 -0.009,8.5456 -0.19906,8.9116 -0.23067,0.4448 -1.4357,1.544 -2.02901,1.8509 -2.714574,1.4042 -7.117974,2.6016 -11.633724,3.1636 -0.66893,0.083 -1.5811,0.2036 -2.02705,0.2674 -0.44596,0.064 -1.90544,0.1836 -3.24329,0.2664 -1.33786,0.083 -3.34465,0.2086 -4.45953,0.2796 -1.11488,0.071 -2.88953,0.1288 -3.94366,0.1283 l -1.91661,0 0.61576,-1.1116 z m 10.17384,-23.2697 c 0.12679,-0.2362 0.50072,-1.3943 0.71971,-2.2291 0.0389,-0.1482 0.2903,-1.0274 0.55869,-1.9537 0.95223,-3.2863 2.08971,-8.074 2.78502,-11.722 0.14831,-0.7781 0.32922,-1.7074 0.40203,-2.065 0.0728,-0.3577 0.13239,-0.7891 0.13239,-0.9587 0,-0.2833 0.0744,-0.3149 0.91217,-0.3864 1.08351,-0.093 2.74853,-0.3724 4.56088,-0.7666 0.37163,-0.081 0.85812,-0.1787 1.0811,-0.2174 0.22297,-0.039 0.52703,-0.1217 0.67568,-0.1842 0.14866,-0.062 0.84799,-0.2938 1.55408,-0.5141 1.39097,-0.434 3.464504,-1.3728 4.134444,-1.8718 0.47214,-0.3518 0.76507,-0.3926 0.97829,-0.1365 0.10042,0.1207 0.1517,2.8486 0.16491,8.7729 l 0.0192,8.5978 -0.40057,0.5576 c -1.71045,2.381 -7.749314,4.2722 -16.180194,5.0674 -0.8919,0.084 -1.76166,0.182 -1.93279,0.2175 -0.27624,0.057 -0.29475,0.034 -0.16501,-0.2077 z m 5.28675,-23.4173 c 0.0714,-0.1874 0.2465,-1.1051 0.38901,-2.0395 0.14251,-0.9343 0.38412,-2.51719 0.53691,-3.5176 0.15279,-1.00042 0.33698,-2.1221 0.40932,-2.49262 0.15053,-0.7711 0.76301,-4.89403 0.95073,-6.39996 0.42671,-3.42314 0.53578,-4.47672 0.47376,-4.57677 -0.0384,-0.0619 0.31018,-0.1516 0.7746,-0.19929 0.46442,-0.0477 1.11805,-0.13999 1.45252,-0.20512 0.33446,-0.0651 1.00339,-0.19178 1.48651,-0.28144 2.28393,-0.42391 3.81905,-0.97248 4.646214,-1.66033 0.33985,-0.28261 0.37795,-0.38462 0.29946,-0.80176 -0.15088,-0.80187 -1.104914,-1.42684 -2.918624,-1.91193 -1.53572,-0.41074 -3.96476,-0.8699 -4.6097,-0.87136 -0.59091,-10e-4 -0.61984,-0.0188 -0.55883,-0.33695 0.0541,-0.28231 0.12081,-0.32352 0.42045,-0.25983 0.42342,0.09 1.26998,0.2557 2.38318,0.46647 3.59507,0.68069 6.333064,1.67691 6.938444,2.52457 0.26756,0.37463 0.27475,0.58429 0.3025,8.81391 l 0.0284,8.43015 -0.30191,0.62182 c -0.16605,0.34204 -0.55501,0.84004 -0.86436,1.10684 -0.68373,0.5896 -2.897014,1.6649 -4.278734,2.07896 -0.55744,0.16704 -1.34799,0.40754 -1.75678,0.53454 -0.97415,0.3026 -1.73945,0.4663 -3.78384,0.8094 -0.92907,0.156 -1.8827,0.3342 -2.11918,0.396 -0.41835,0.1094 -0.42645,0.1032 -0.30006,-0.2282 z"
         id="path4174"
         inkscape:connector-curvature="0" />
    </g>
  </g>
</svg>
