<?xml version="1.0" encoding="UTF-8" standalone="no"?>
<!-- Created with Inkscape (http://www.inkscape.org/) -->

<svg
   xmlns:dc="http://purl.org/dc/elements/1.1/"
   xmlns:cc="http://creativecommons.org/ns#"
   xmlns:rdf="http://www.w3.org/1999/02/22-rdf-syntax-ns#"
   xmlns:svg="http://www.w3.org/2000/svg"
   xmlns="http://www.w3.org/2000/svg"
   xmlns:sodipodi="http://sodipodi.sourceforge.net/DTD/sodipodi-0.dtd"
   xmlns:inkscape="http://www.inkscape.org/namespaces/inkscape"
   width="80"
   height="80"
   viewBox="0 0 80.000001 80.000001"
   id="svg2"
   version="1.1"
   inkscape:version="0.91 r13725"
   sodipodi:docname="github_gray.svg">
  <defs
     id="defs4">
    <clipPath
       clipPathUnits="userSpaceOnUse"
       id="clipPath4189">
      <rect
         style="opacity:0.2;fill:#4a2f8f;fill-opacity:1;stroke:none;stroke-width:0.5;stroke-miterlimit:4;stroke-dasharray:none;stroke-opacity:0.72835819"
         id="rect4191"
         width="80"
         height="80"
         x="0"
         y="972.36218" />
    </clipPath>
    <clipPath
       clipPathUnits="userSpaceOnUse"
       id="clipPath4157">
      <rect
         style="opacity:0.2;fill:#4a2f8f;fill-opacity:1;stroke:none;stroke-width:0.5;stroke-miterlimit:4;stroke-dasharray:none;stroke-opacity:0.72835819"
         id="rect4159"
         width="80"
         height="80"
         x="0"
         y="972.36218" />
    </clipPath>
    <filter
       style="color-interpolation-filters:sRGB;"
       inkscape:label="Greyscale"
       id="filter4138">
      <feColorMatrix
         values="0.21 0.72 0.072 0 0 0.21 0.72 0.072 0 0 0.21 0.72 0.072 0 0 0 0 0 1 0 "
         id="feColorMatrix4140"
         result="fbSourceGraphic" />
      <feColorMatrix
         result="fbSourceGraphicAlpha"
         in="fbSourceGraphic"
         values="0 0 0 -1 0 0 0 0 -1 0 0 0 0 -1 0 0 0 0 1 0"
         id="feColorMatrix4142" />
      <feColorMatrix
         id="feColorMatrix4144"
         values="0.21 0.72 0.072 0 0 0.21 0.72 0.072 0 0 0.21 0.72 0.072 0 0 0 0 0 1 0 "
         in="fbSourceGraphic" />
    </filter>
  </defs>
  <sodipodi:namedview
     id="base"
     pagecolor="#ffffff"
     bordercolor="#666666"
     borderopacity="1.0"
     inkscape:pageopacity="0.0"
     inkscape:pageshadow="2"
     inkscape:zoom="2.9371275"
     inkscape:cx="40.231461"
     inkscape:cy="49.904103"
     inkscape:document-units="px"
     inkscape:current-layer="layer1"
     showgrid="false"
     units="px"
     inkscape:window-width="1920"
     inkscape:window-height="1027"
     inkscape:window-x="1912"
     inkscape:window-y="-8"
     inkscape:window-maximized="1" />
  <metadata
     id="metadata7">
    <rdf:RDF>
      <cc:Work
         rdf:about="">
        <dc:format>image/svg+xml</dc:format>
        <dc:type
           rdf:resource="http://purl.org/dc/dcmitype/StillImage" />
        <dc:title></dc:title>
      </cc:Work>
    </rdf:RDF>
  </metadata>
  <g
     inkscape:label="Layer 1"
     inkscape:groupmode="layer"
     id="layer1"
     transform="translate(0,-972.36216)">
    <path
       style="fill:#b3b3b3"
       d="m 27.596745,1052.3348 c -0.636399,-0.09 -3.062265,-1.0673 -4.842161,-1.9515 -5.350456,-2.6578 -9.979201,-6.4282 -13.7034306,-11.1627 -3.6862511,-4.686 -6.3663564,-10.2128 -7.8033361,-16.0917 -1.84372123,-7.5429 -1.63982056,-15.5937 0.5820009,-22.9803 0.6414022,-2.13239 1.3681052,-3.97636 2.4007836,-6.09186 5.0514004,-10.34813 14.2501652,-17.77119 25.4355432,-20.52553 5.049402,-1.24339 10.523345,-1.5007 15.834104,-0.74431 10.190604,1.45138 19.40033,6.67645 25.751223,14.60973 4.356683,5.44219 7.211017,11.9968 8.271237,18.99377 0.99689,6.5791 0.425267,13.5029 -1.650053,19.9863 -3.808894,11.8991 -12.637884,21.334 -23.873515,25.5119 -1.074555,0.3996 -1.370022,0.466 -1.916722,0.4308 -0.928483,-0.059 -1.537016,-0.5079 -1.810207,-1.3335 -0.09074,-0.2741 -0.09836,-0.9158 -0.09374,-7.8925 0.0033,-4.9817 -0.01645,-7.8107 -0.05738,-8.224 -0.237614,-2.3999 -1.006528,-4.3395 -2.261295,-5.704 -0.211442,-0.2299 -0.345642,-0.418 -0.298216,-0.418 0.183763,0 2.990138,-0.3705 3.906503,-0.5158 4.206669,-0.6668 7.206272,-1.8102 9.358648,-3.5672 3.093971,-2.5258 4.764655,-6.5314 5.089913,-12.2037 0.118894,-2.0734 0.0586,-3.4795 -0.207522,-4.8398 -0.428725,-2.1915 -1.330775,-3.8715 -3.372388,-6.2807 l -0.51599,-0.6089 0.148167,-0.4526 c 0.971346,-2.96839 0.825064,-6.85479 -0.386406,-10.26622 -0.172833,-0.4867 -0.195126,-0.51921 -0.395006,-0.57617 -0.562205,-0.16019 -1.836549,-0.0381 -2.873958,0.27557 -1.97361,0.59656 -4.98127,2.14461 -7.422605,3.82045 l -0.606403,0.41626 -1.090335,-0.27309 c -5.970926,-1.49553 -12.111335,-1.49576 -18.101742,-6.8e-4 l -1.09718,0.27384 -0.716575,-0.47732 c -3.283449,-2.18713 -6.258566,-3.61068 -8.381143,-4.01024 -0.672681,-0.12663 -1.854084,-0.10014 -1.995294,0.0446 -0.121849,0.12499 -0.565159,1.48149 -0.7824,2.39407 -0.354308,1.4884 -0.439561,2.26602 -0.437156,3.98744 0.0018,1.33583 0.02099,1.67231 0.132795,2.33719 0.143428,0.85292 0.293355,1.4947 0.476247,2.03856 0.06556,0.1949 0.119209,0.3905 0.119209,0.4345 0,0.044 -0.131824,0.2293 -0.292938,0.4118 -1.570178,1.7786 -2.585085,3.5803 -3.040829,5.3982 -0.340085,1.3565 -0.381707,1.8277 -0.379355,4.2944 0.0022,2.4139 0.0601,3.2312 0.349417,4.942 1.057255,6.2514 4.158715,9.9201 9.822365,11.619 1.889551,0.5667 4.238262,0.9907 7.511673,1.3557 l 0.36718,0.041 -0.37168,0.4042 c -0.937915,1.0199 -1.669443,2.5487 -2.0266,4.2351 -0.06991,0.3301 -0.146159,0.6812 -0.169447,0.7802 -0.03772,0.1605 -0.102797,0.2051 -0.596449,0.4097 -1.318552,0.5462 -2.712498,0.8303 -4.064592,0.8285 -2.272346,0 -4.017143,-0.7681 -5.59323,-2.4525 -0.523058,-0.5591 -0.71407,-0.8289 -1.859023,-2.6269 -0.503017,-0.7898 -1.477623,-1.7962 -2.230852,-2.3037 -1.347718,-0.9079 -3.110938,-1.5101 -4.15408,-1.4189 -1.255866,0.1098 -1.594531,0.5177 -1.067812,1.2859 0.296966,0.4331 0.98882,1.0478 1.57306,1.3977 0.253076,0.1515 0.657935,0.4494 0.899685,0.6619 1.179952,1.0372 2.599753,3.3248 3.418978,5.5088 0.934751,2.4918 2.821838,3.9991 5.890756,4.7051 1.948229,0.4483 4.861152,0.4762 7.137975,0.068 0.266803,-0.048 0.49564,-0.076 0.508529,-0.062 0.01289,0.014 0.03762,2.3697 0.05494,5.2365 0.0297,4.914 0.02546,5.231 -0.07412,5.54 -0.137816,0.4275 -0.319555,0.7179 -0.595309,0.9513 -0.422476,0.3575 -1.1395,0.5244 -1.832459,0.4267 z m -2.201177,-15.031 c -0.324662,-0.1449 -0.459389,-0.4766 -0.309953,-0.763 0.0903,-0.1731 0.504393,-0.3483 0.827037,-0.3498 0.557811,0 0.96738,0.3913 0.79481,0.7644 -0.163724,0.354 -0.875727,0.5431 -1.311894,0.3484 z m 3.039523,-0.3613 c -0.344045,-0.1535 -0.409961,-0.5039 -0.153607,-0.8163 0.192123,-0.2343 0.459723,-0.3566 0.779931,-0.3566 0.403502,0 0.758641,0.2614 0.758641,0.5585 0,0.3351 -0.546963,0.7063 -1.03068,0.6996 -0.09281,0 -0.252235,-0.04 -0.354285,-0.086 z m -6.113789,-0.1271 c -0.572572,-0.1808 -0.762338,-0.743 -0.347316,-1.0288 0.419305,-0.289 1.135837,-0.1075 1.375422,0.3482 0.14516,0.2762 0.09131,0.5014 -0.156972,0.6567 -0.219528,0.1373 -0.488467,0.1447 -0.871134,0.024 z m -2.593908,-1.58 c -0.719375,-0.3424 -0.938658,-1.1876 -0.359041,-1.3837 0.732213,-0.2479 1.585028,1.1118 0.885411,1.4117 -0.249176,0.1068 -0.2425,0.1072 -0.52637,-0.028 z m -2.047786,-2.3983 c -0.667566,-0.4231 -0.72556,-1.3888 -0.0834,-1.3888 0.35628,0 0.81475,0.558 0.81475,0.9916 0,0.2569 -0.197787,0.5089 -0.399178,0.5086 -0.08616,0 -0.235636,-0.05 -0.332175,-0.1114 z m -1.733299,-2.4356 c -0.214548,-0.1495 -0.402249,-0.4674 -0.402249,-0.6812 0,-0.148 0.16518,-0.3505 0.324013,-0.3975 0.17148,-0.05 0.620233,0.2015 0.738355,0.4149 0.173202,0.313 0.184904,0.4697 0.04835,0.6478 -0.160137,0.2088 -0.423359,0.2148 -0.708464,0.016 z m -1.688394,-1.7219 c -0.266703,-0.1668 -0.354501,-0.2893 -0.337077,-0.4704 0.03379,-0.3514 0.610446,-0.39 0.929929,-0.062 0.426642,0.4376 -0.05407,0.8694 -0.592852,0.5325 z"
       id="path4146"
       inkscape:connector-curvature="0" />
  </g>
</svg>
