<?xml version="1.0" encoding="UTF-8" standalone="no"?>
<!-- Created with Inkscape (http://www.inkscape.org/) -->

<svg
   xmlns:dc="http://purl.org/dc/elements/1.1/"
   xmlns:cc="http://creativecommons.org/ns#"
   xmlns:rdf="http://www.w3.org/1999/02/22-rdf-syntax-ns#"
   xmlns:svg="http://www.w3.org/2000/svg"
   xmlns="http://www.w3.org/2000/svg"
   xmlns:sodipodi="http://sodipodi.sourceforge.net/DTD/sodipodi-0.dtd"
   xmlns:inkscape="http://www.inkscape.org/namespaces/inkscape"
   width="135"
   height="45"
   id="svg2"
   version="1.1"
   inkscape:version="0.91 r13725"
   sodipodi:docname="LuisCabreraLogoWhite.svg">
  <defs
     id="defs4" />
  <sodipodi:namedview
     id="base"
     pagecolor="#ffffff"
     bordercolor="#666666"
     borderopacity="1.0"
     inkscape:pageopacity="0.0"
     inkscape:pageshadow="2"
     inkscape:zoom="1.979899"
     inkscape:cx="-136.29017"
     inkscape:cy="30.078212"
     inkscape:document-units="px"
     inkscape:current-layer="layer1"
     showgrid="false"
     inkscape:window-width="1920"
     inkscape:window-height="1027"
     inkscape:window-x="1912"
     inkscape:window-y="-8"
     inkscape:window-maximized="1"
     fit-margin-top="0"
     fit-margin-left="0"
     fit-margin-right="0"
     fit-margin-bottom="0" />
  <metadata
     id="metadata7">
    <rdf:RDF>
      <cc:Work
         rdf:about="">
        <dc:format>image/svg+xml</dc:format>
        <dc:type
           rdf:resource="http://purl.org/dc/dcmitype/StillImage" />
        <dc:title />
      </cc:Work>
    </rdf:RDF>
  </metadata>
  <g
     inkscape:label="Layer 1"
     inkscape:groupmode="layer"
     id="layer1"
     transform="translate(-3.8700088,-1006.6478)">
    <path
       style="fill:#000000"
       d=""
       id="path3049"
       inkscape:connector-curvature="0" />
    <path
       style="fill:#ffffff;fill-opacity:1"
       d="m 98.411817,1050.0211 c 1.128891,-0.894 6.827673,-4.143 9.680603,-5.5192 5.8068,-2.8011 10.53028,-4.1115 14.89606,-4.1324 2.35888,-0.011 2.54975,0.022 3.09554,0.5338 0.31992,0.3002 0.58167,0.6294 0.58167,0.7317 0,0.1022 -0.71316,0.1859 -1.58479,0.1859 -6.99527,0 -15.17288,2.3902 -24.30521,7.1042 -1.547778,0.7989 -2.611517,1.2921 -2.363873,1.096 z m 26.677953,-6.1856 c -0.55719,-0.099 -1.82355,-0.1998 -2.81413,-0.2237 l -1.80104,-0.044 1.46335,-0.3004 c 1.92027,-0.3941 3.6615,-0.3966 4.59492,-0.01 1.69444,0.708 0.95717,1.0014 -1.4431,0.5744 z"
       id="path3836-7"
       inkscape:connector-curvature="0" />
    <path
       style="fill:#ffffff"
       d="m 110.71785,1038.6208 c -0.34198,-0.5219 -0.32402,-0.7068 0.23498,-2.4193 0.33289,-1.0197 0.55666,-1.9027 0.49725,-1.9621 -0.0594,-0.059 -0.73032,0.3757 -1.49093,0.967 -2.09293,1.6268 -3.08456,2.074 -4.59862,2.074 -1.65385,0 -2.74758,-0.5591 -3.68731,-1.8849 -0.98358,-1.3876 -1.00593,-3.3378 -0.0614,-5.3545 l 0.65755,-1.4039 -2.481598,0.1267 c -2.138456,0.1091 -2.655924,0.2209 -3.74232,0.8084 -2.325181,1.2574 -2.964125,2.1598 -4.530298,6.3982 -0.387261,1.048 -0.880784,2.0395 -1.096715,2.2032 -0.652412,0.4948 -1.473838,0.3611 -1.769589,-0.288 -0.221833,-0.4869 -0.102343,-1.1405 0.707619,-3.8705 0.535986,-1.8066 1.203157,-4.1958 1.482599,-5.3093 0.609028,-2.4268 1.340918,-4.2054 1.803576,-4.383 0.545423,-0.2093 1.522781,0.3677 1.679314,0.9913 0.07948,0.3167 0.006,0.9956 -0.163318,1.5086 -0.169309,0.513 -0.229782,1.0108 -0.134386,1.1062 0.0954,0.095 0.928716,-0.2396 1.85182,-0.7444 1.476159,-0.8073 1.807747,-0.9002 2.752191,-0.7707 0.590599,0.081 1.711095,0.471 2.489985,0.8668 l 1.41616,0.7196 1.23,-1.0759 c 1.58123,-1.3833 3.10223,-2.0996 4.4249,-2.0839 1.32478,0.016 1.73843,0.4345 1.85928,1.8826 0.13173,1.5784 -0.24729,2.1598 -2.1836,3.3492 -1.31954,0.8106 -1.87522,1.0154 -2.75495,1.0154 -0.94976,0 -1.14019,0.084 -1.37842,0.6067 -0.39572,0.8685 -0.34162,1.5462 0.19346,2.4238 0.80535,1.3208 2.26435,1.3463 5.2502,0.092 2.69364,-1.1318 2.72265,-1.1681 3.63834,-4.5513 1.19463,-4.4138 1.71641,-5.2091 2.90613,-4.4295 0.79188,0.5188 0.96446,1.3458 0.47743,2.2876 -0.66344,1.2829 -0.14508,1.3875 1.80323,0.3637 1.96579,-1.033 2.67703,-1.0413 4.82861,-0.056 l 1.30397,0.597 1.27259,-0.9563 c 0.69992,-0.526 1.9934,-1.3194 2.87439,-1.7631 2.43765,-1.2277 3.86131,-1.0414 4.70691,0.6161 0.83449,1.6358 -0.0239,2.4168 -1.64301,1.4949 -0.72144,-0.4108 -0.75136,-0.4065 -2.06581,0.2977 -2.04885,1.0977 -5.93595,4.8416 -5.48986,5.2877 0.0796,0.08 0.76243,-0.2778 1.51736,-0.7944 2.00533,-1.3721 6.07527,-3.2352 6.86327,-3.1418 0.3725,0.044 0.86232,0.3565 1.13564,0.7243 0.47224,0.6353 0.47316,0.6713 0.0524,2.0609 -0.41511,1.371 -0.41452,1.4423 0.0193,2.3307 0.391,0.8006 0.5651,0.926 1.37877,0.9925 0.668,0.055 1.12821,-0.069 1.62793,-0.4388 0.64866,-0.4796 0.67949,-0.483 0.4474,-0.049 -0.33532,0.6265 -1.78486,1.8805 -2.39922,2.0755 -1.20452,0.3823 -2.9597,-0.8402 -3.58524,-2.4972 -0.35048,-0.9284 -1.13576,-1.9055 -1.53142,-1.9055 -0.14192,0 -1.32123,0.711 -2.6207,1.58 -2.4456,1.6354 -4.22532,2.5289 -5.54243,2.7824 -0.63401,0.122 -0.84569,0.042 -1.25047,-0.4726 -1.00618,-1.2791 -0.48098,-2.9978 1.63699,-5.357 0.66569,-0.7415 1.21034,-1.465 1.21034,-1.6078 0,-0.355 -1.77506,-0.3284 -3.22313,0.048 -0.6508,0.1693 -1.74358,0.6752 -2.4284,1.1241 -1.42423,0.9337 -2.19947,2.1995 -3.51619,5.7411 -0.44881,1.2072 -0.95449,2.2827 -1.12375,2.3901 -0.58153,0.3689 -1.36684,0.2052 -1.73885,-0.3626 z m -3.90492,-9.8474 c 1.0785,-0.6371 1.24793,-1.8358 0.22154,-1.5674 -0.6435,0.1683 -1.67375,1.1578 -1.67375,1.6075 0,0.4842 0.59233,0.4678 1.45221,-0.04 z m -24.408576,8.5106 c -2.313901,-0.7326 -3.513423,-4.307 -2.666699,-7.9464 0.398134,-1.7113 1.976986,-5.9393 3.348949,-8.9683 0.445035,-0.9825 1.631476,-3.7156 2.636535,-6.0737 2.008548,-4.7123 2.521109,-5.5973 3.241881,-5.5973 0.774058,0 1.867014,0.7644 1.861362,1.3018 -0.0028,0.2665 -0.49555,1.2349 -1.094993,2.1519 -1.265394,1.9358 -4.135726,7.7599 -4.730408,9.5984 -0.224503,0.694 -0.348499,1.4997 -0.275548,1.7904 0.07295,0.2906 0.891378,1.5966 1.81873,2.9022 1.900443,2.6757 2.007095,2.9484 2.017268,5.1582 0.0068,1.4675 -0.06352,1.6874 -0.945439,2.9581 -1.699702,2.4491 -3.352727,3.3133 -5.211638,2.7247 z m 2.716827,-3.5458 c 1.25302,-1.253 1.185255,-2.621 -0.241264,-4.8702 -0.892207,-1.4068 -1.348492,-1.3903 -2.102167,0.076 -0.447934,0.8714 -0.53596,1.3648 -0.47088,2.6389 0.138396,2.7095 1.339934,3.6297 2.814311,2.1553 z m -31.921113,3.1783 c -1.894884,-0.857 -2.708891,-2.1828 -2.678063,-4.3616 0.02654,-1.8756 0.837309,-3.6615 2.235929,-4.9251 1.385834,-1.252 4.1608,-2.5121 5.874145,-2.6675 1.27803,-0.1159 1.439976,-0.077 1.796421,0.432 0.465577,0.6647 0.508269,1.4928 0.09403,1.8238 -0.163751,0.1309 -0.938963,0.3156 -1.722689,0.4105 -2.919677,0.3536 -4.841488,2.0072 -5.064969,4.3581 -0.122479,1.2884 0.396827,2.1669 1.670215,2.8254 1.731807,0.8956 5.51412,-0.4151 7.520103,-2.6058 3.141993,-3.4314 4.084448,-4.3497 5.34798,-5.2111 1.918388,-1.3079 3.701252,-2.0953 4.750275,-2.098 1.181825,-0 2.289501,0.9735 2.482656,2.189 0.129196,0.8129 0.08876,0.8942 -0.521507,1.0473 -0.388623,0.098 -0.81832,0.053 -1.04152,-0.1087 -0.816164,-0.5902 -1.103924,-0.5676 -2.591463,0.2036 -1.514586,0.7853 -4.676465,3.6138 -5.259804,4.7052 -0.390889,0.7313 -0.112671,0.6746 1.2817,-0.2614 1.8411,-1.2358 6.051983,-3.2519 6.792065,-3.2519 0.450411,0 0.86433,0.2367 1.281848,0.7329 0.72071,0.8565 0.727753,0.9051 0.260823,1.8004 -0.601934,1.1542 -0.371886,2.9278 0.451012,3.4773 0.54236,0.3621 1.73225,0.1606 2.648173,-0.4485 l 0.94848,-0.6308 -0.714552,0.8023 c -1.972411,2.2145 -2.588089,2.4557 -4.154841,1.628 -0.893513,-0.472 -1.21785,-0.8428 -1.836067,-2.099 -0.412971,-0.8392 -0.919701,-1.6202 -1.126064,-1.7357 -0.450232,-0.252 -1.342566,0.1724 -3.363135,1.5996 -2.624505,1.8538 -5.260492,2.9307 -6.088619,2.4875 -0.525241,-0.2811 -1.024702,-1.7249 -0.819911,-2.3702 0.218908,-0.6897 -0.10931,-0.5952 -1.192338,0.3432 -2.200051,1.9063 -5.404013,2.7488 -7.260316,1.9092 z"
       id="path3031-7-0"
       inkscape:connector-curvature="0"
       sodipodi:nodetypes="sscsssscssssssssscsssscssssssssssssscssssscsssssssssssssssssssssssssssssscssssssssssssssssssssssssssssssssssscsssssssss" />
    <path
       style="fill:#ffffff;fill-opacity:1"
       d="m 36.696946,1038.1411 c -1.349688,-0.9453 -1.107138,-2.093 0.831477,-3.9344 1.036019,-0.984 1.070219,-0.9989 0.506749,-0.2216 -1.044009,1.4404 -1.223624,1.893 -0.904061,2.278 0.508716,0.613 1.634017,0.4103 2.493331,-0.449 1.010807,-1.0108 1.221376,-2.1232 0.86701,-4.5804 -0.442027,-3.0651 -0.369926,-4.1901 0.335133,-5.229 0.336442,-0.4958 0.845561,-1.0983 1.131375,-1.339 1.028239,-0.8658 2.866076,-1.637 3.901005,-1.637 0.916545,0 1.025064,0.059 1.025064,0.5585 0,0.6499 -0.67796,1.3469 -1.310051,1.3469 -0.241393,0 -0.893644,0.4746 -1.449447,1.0547 -1.384393,1.4448 -1.752119,3.1029 -1.197654,5.4001 0.474136,1.9644 0.487498,3.244 0.04493,4.3032 -0.428598,1.0258 -1.460384,2.0757 -2.451559,2.4946 -1.044028,0.4412 -3.164363,0.416 -3.823305,-0.046 z M 8.9147445,1036.825 c -1.1796575,-1.402 -1.1191135,-2.6441 0.3706314,-7.6036 1.5637151,-5.2057 3.0117211,-8.8491 4.6083361,-11.5951 1.551954,-2.6692 2.360683,-3.5414 3.04137,-3.2802 0.907113,0.3481 0.722008,1.0529 -1.456987,5.5477 -1.185122,2.4447 -2.435053,5.1951 -2.777621,6.1122 -0.871426,2.3326 -2.020451,6.877 -2.020451,7.9907 0,1.7076 1.093904,1.4957 5.194225,-1.0061 1.844515,-1.1254 1.758778,-1.0215 2.560709,-3.1037 0.679771,-1.765 0.706038,-2.9465 0.06444,-2.8983 -1.144104,0.086 1.015873,-1.7726 2.302606,-1.9814 0.717644,-0.1164 0.852266,-0.057 1.049137,0.4605 0.131051,0.3446 0.14258,0.9632 0.02746,1.4736 -0.212648,0.9429 -1.157144,3.4354 -1.450652,3.8283 -0.334267,0.4475 -0.510316,1.9646 -0.246868,2.1274 0.512615,0.3169 2.347673,-1.0694 5.811617,-4.3901 2.22981,-2.1376 3.103398,-2.6462 3.63397,-2.1157 0.318078,0.3181 0.291137,0.6653 -0.243496,3.1381 -0.695298,3.2159 -0.747648,4.3789 -0.230364,5.1174 0.437213,0.6242 1.549819,0.7049 2.546975,0.1847 0.906506,-0.4728 0.818668,-0.1492 -0.238184,0.8776 -1.498365,1.4558 -2.968443,1.6691 -4.11843,0.5978 -0.954856,-0.8896 -1.18367,-1.8194 -0.88165,-3.5826 0.149086,-0.8703 0.193903,-1.6596 0.09959,-1.7539 -0.09431,-0.094 -0.838995,0.5282 -1.654852,1.3835 -2.699061,2.8294 -4.528676,4.0132 -6.202497,4.0132 -1.144661,0 -1.721364,-0.7135 -1.669064,-2.0649 l 0.04118,-1.0639 -1.229964,1.1476 c -0.676482,0.6311 -1.415198,1.3314 -1.641593,1.5562 -0.745635,0.7403 -2.768582,1.6159 -3.733385,1.6159 -0.7566973,0 -1.0594699,-0.1426 -1.5561865,-0.7329 z m 23.8882085,-0.1603 c -0.01551,-0.098 -0.02079,-0.2432 -0.01172,-0.3221 0.0091,-0.079 0.03929,-0.6148 0.06717,-1.1909 0.02788,-0.5761 0.130756,-1.1547 0.228614,-1.2857 0.09786,-0.131 0.354061,-1.0956 0.569337,-2.1436 0.215275,-1.048 0.611083,-2.6311 0.879574,-3.518 0.277479,-0.9165 0.424106,-1.8677 0.339738,-2.2038 -0.122605,-0.4885 -0.01293,-0.674 0.630372,-1.0662 0.911819,-0.556 2.751518,-0.6507 2.943047,-0.1516 0.156513,0.4079 -2.125606,7.945 -2.903792,9.5903 -0.671649,1.4201 -1.636781,2.4702 -2.270244,2.4702 -0.244139,0 -0.456582,-0.08 -0.472095,-0.1786 z m -0.465641,-12.4321 c 2.013536,-1.3358 3.389836,-3.5113 3.867412,-6.1133 0.363772,-1.9819 1.048266,-2.8474 2.057112,-2.6012 0.819268,0.1999 1.403774,0.7849 1.604004,1.6053 0.125361,0.5137 0.02444,0.768 -0.496131,1.2505 -0.359427,0.3331 -0.825425,0.6063 -1.035546,0.6071 -0.210124,10e-4 -1.34623,1.0375 -2.52468,2.3037 -2.085948,2.2412 -3.73318,3.6505 -4.264529,3.6484 -0.144097,-5e-4 0.212465,-0.3158 0.792358,-0.7005 z"
       id="path3046-4-9"
       inkscape:connector-curvature="0" />
  </g>
</svg>
