<?xml version="1.0" encoding="UTF-8" standalone="no"?>
<!-- Created with Inkscape (http://www.inkscape.org/) -->

<svg
   xmlns:dc="http://purl.org/dc/elements/1.1/"
   xmlns:cc="http://creativecommons.org/ns#"
   xmlns:rdf="http://www.w3.org/1999/02/22-rdf-syntax-ns#"
   xmlns:svg="http://www.w3.org/2000/svg"
   xmlns="http://www.w3.org/2000/svg"
   xmlns:sodipodi="http://sodipodi.sourceforge.net/DTD/sodipodi-0.dtd"
   xmlns:inkscape="http://www.inkscape.org/namespaces/inkscape"
   width="80"
   height="80"
   viewBox="0 0 80.000001 80.000001"
   id="svg2"
   version="1.1"
   inkscape:version="0.91 r13725"
   sodipodi:docname="netcore_gray.svg">
  <defs
     id="defs4">
    <filter
       style="color-interpolation-filters:sRGB;"
       inkscape:label="Greyscale"
       id="filter4134">
      <feColorMatrix
         values="0.21 0.72 0.072 0 0 0.21 0.72 0.072 0 0 0.21 0.72 0.072 0 0 0 0 0 1 0 "
         id="feColorMatrix4136" />
    </filter>
  </defs>
  <sodipodi:namedview
     id="base"
     pagecolor="#ffffff"
     bordercolor="#666666"
     borderopacity="1.0"
     inkscape:pageopacity="0.0"
     inkscape:pageshadow="2"
     inkscape:zoom="3.959798"
     inkscape:cx="77.107518"
     inkscape:cy="-9.1077351"
     inkscape:document-units="px"
     inkscape:current-layer="layer1"
     showgrid="false"
     units="px"
     inkscape:window-width="1920"
     inkscape:window-height="1027"
     inkscape:window-x="-8"
     inkscape:window-y="-8"
     inkscape:window-maximized="1" />
  <metadata
     id="metadata7">
    <rdf:RDF>
      <cc:Work
         rdf:about="">
        <dc:format>image/svg+xml</dc:format>
        <dc:type
           rdf:resource="http://purl.org/dc/dcmitype/StillImage" />
        <dc:title />
      </cc:Work>
    </rdf:RDF>
  </metadata>
  <g
     inkscape:label="Layer 1"
     inkscape:groupmode="layer"
     id="layer1"
     transform="translate(0,-972.36216)">
    <path
       style="fill:#b3b3b3"
       d="m 38.306994,1052.3456 c -9.094581,-0.4784 -17.162456,-3.6169 -24.085808,-9.3698 -1.206961,-1.0029 -3.849997,-3.6455 -4.853044,-4.8523 -3.9792639,-4.7876 -6.7281822,-10.1697 -8.194279,-16.0437 C 0.34310204,1018.7512 0,1015.9103 0,1012.36 c 0,-3.5505 0.34310204,-6.3914 1.173863,-9.7199 3.7161803,-14.88901 15.765444,-26.43448 30.773207,-29.48641 4.404057,-0.89554 9.448425,-1.03826 13.867189,-0.39212 6.538541,0.95609 12.924612,3.6211 18.180784,7.58699 1.741131,1.31368 2.538877,2.01316 4.267308,3.7413 1.666111,1.66588 2.378985,2.47365 3.633213,4.11681 6.646688,8.70751 9.396646,19.99143 7.534547,30.91673 -1.682907,9.8738 -6.977777,18.6792 -14.96499,24.8869 -1.187837,0.9231 -3.28357,2.3295 -4.57474,3.07 -1.154997,0.6624 -3.92415,2.0025 -5.083044,2.4599 -3.57023,1.4091 -7.329244,2.3046 -11.149053,2.6559 -1.289042,0.1185 -4.326996,0.2033 -5.35129,0.1495 z m -7.03414,-17.7411 c 0.260219,-0.059 0.673705,-0.1824 0.918857,-0.2741 l 0.445734,-0.1668 0,-0.5808 c 0,-0.3194 -0.01934,-0.5807 -0.04298,-0.5807 -0.02364,0 -0.138009,0.049 -0.254152,0.109 -0.903922,0.4669 -2.599997,0.662 -3.499524,0.4024 -0.69378,-0.2003 -1.172431,-0.491 -1.640649,-0.9967 -0.748106,-0.8079 -1.08404,-1.76 -1.08404,-3.0724 0,-0.9291 0.11026,-1.4434 0.474478,-2.2134 0.484197,-1.0237 1.364347,-1.7636 2.485573,-2.0895 0.691237,-0.2009 1.997897,-0.1306 2.779291,0.1496 0.322578,0.1157 0.648088,0.2308 0.723356,0.2558 0.122304,0.041 0.136852,-0.018 0.136852,-0.5482 0,-0.5687 -0.009,-0.5981 -0.215053,-0.7033 -0.690365,-0.3523 -2.774518,-0.4892 -3.737203,-0.2454 -0.853851,0.2164 -1.722709,0.7055 -2.34125,1.3181 -0.967711,0.9585 -1.470234,2.0174 -1.628836,3.4321 -0.344332,3.0712 1.382382,5.5261 4.168708,5.9264 0.544867,0.078 1.695774,0.017 2.310842,-0.1221 z m 8.100933,-0.2126 c 0.983806,-0.4863 1.651457,-1.2977 1.975575,-2.401 0.184301,-0.6273 0.16915,-2.0346 -0.0288,-2.6751 -0.510305,-1.6514 -1.658033,-2.4935 -3.391987,-2.4889 -0.843955,0 -1.246363,0.084 -1.836551,0.3723 -0.863862,0.4222 -1.545468,1.2533 -1.854426,2.2611 -0.06323,0.2063 -0.135922,0.6741 -0.161526,1.0397 -0.137056,1.9566 0.862631,3.5463 2.588709,4.1164 0.202892,0.067 0.630249,0.097 1.216246,0.085 0.868234,-0.018 0.926413,-0.03 1.492761,-0.3096 z m -2.380722,-0.7945 c -0.72563,-0.2699 -1.233366,-0.8336 -1.503574,-1.6695 -0.101443,-0.3138 -0.125038,-0.6062 -0.100939,-1.2511 0.03953,-1.0575 0.271178,-1.6389 0.866172,-2.1739 0.892859,-0.8026 2.363946,-0.7872 3.184582,0.033 0.587041,0.5869 0.742825,1.0719 0.743749,2.3156 7.04e-4,0.9508 -0.01341,1.0468 -0.21853,1.4856 -0.255934,0.5476 -0.593766,0.9256 -1.031925,1.1547 -0.402117,0.2101 -1.497586,0.2697 -1.939535,0.1053 z m 15.948768,0.9615 c 0.294852,-0.09 0.685652,-0.2496 0.868446,-0.355 l 0.332352,-0.192 0,-0.5441 c 0,-0.2991 -0.0225,-0.5439 -0.05,-0.5439 -0.0275,0 -0.21225,0.099 -0.410553,0.2211 -1.140491,0.6995 -2.545953,0.7371 -3.436592,0.092 -0.390217,-0.2827 -0.772597,-1.0359 -0.843618,-1.6619 l -0.05101,-0.4496 2.669591,0 2.669589,0 -0.0014,-0.5669 c -0.0041,-1.6957 -0.747499,-3.0557 -1.907669,-3.4897 -2.420716,-0.9056 -4.731736,0.9477 -4.736875,3.7986 -0.0015,0.8336 0.108111,1.3387 0.4441,2.0464 0.414946,0.8741 1.025633,1.4089 1.939864,1.6987 0.522281,0.1655 1.889662,0.1364 2.513734,-0.054 z m -3.530685,-4.7041 c 0.295882,-1.4689 1.790467,-2.3234 2.991769,-1.7103 0.161151,0.082 0.350485,0.2148 0.420742,0.2947 0.243361,0.2765 0.472325,0.8316 0.515486,1.2497 l 0.04336,0.4202 -2.011272,0 -2.011271,0 0.05118,-0.2543 z m -4.714684,2.2676 c 0.02523,-2.3559 0.03261,-2.4574 0.206095,-2.8343 0.255193,-0.5544 0.521936,-0.8767 0.874014,-1.0564 0.368525,-0.188 1.005036,-0.2054 1.331881,-0.036 l 0.230718,0.1193 0,-0.6619 0,-0.6618 -0.36144,-0.054 c -0.81224,-0.1218 -1.575064,0.2657 -2.075001,1.0539 l -0.222382,0.3506 0,-0.6408 0,-0.6409 -0.664706,0 -0.664705,0 0,3.7531 0,3.7532 0.659677,0 0.659677,0 0.02617,-2.4435 z M 9.9201472,1018.781 c 0.6546318,-0.3003 1.0557098,-0.9126 1.0557098,-1.6118 0,-0.9395 -0.618136,-1.6568 -1.5572211,-1.807 -0.6807238,-0.1088 -1.5144036,0.3599 -1.8143138,1.0202 -0.2001027,0.4405 -0.1933401,1.1503 0.015054,1.5808 0.160113,0.3307 0.5492225,0.692 0.9322532,0.8655 0.3060692,0.1387 1.0160773,0.1139 1.3685123,-0.048 z m 8.4644828,-9.8028 c -0.01553,-5.3002 -0.0541,-9.72478 -0.08574,-9.83227 -0.03164,-0.10749 0.100332,0.10359 0.293266,0.46909 0.192933,0.36557 3.006287,4.78128 6.251896,9.81278 l 5.901109,9.1482 1.689311,0.021 1.689311,0.021 -0.01981,-11.3976 -0.01981,-11.39762 -1.352469,-0.021 -1.352469,-0.021 0.03181,9.44316 c 0.0175,5.1938 0.05715,9.5665 0.08812,9.717 0.04492,0.2184 -0.0308,0.1315 -0.374914,-0.4301 -0.237165,-0.387 -3.016913,-4.75 -6.177215,-9.6955 l -5.746001,-8.99172 -1.766559,-0.021 -1.766557,-0.021 0,11.41716 0,11.4171 1.372476,0 1.372476,0 -0.02822,-9.6368 z m 33.724784,8.3859 0,-1.251 -4.692041,0 -4.692041,0 0,-3.9486 0,-3.9486 4.105535,0 4.105537,0 0,-1.212 0,-1.2119 -4.105537,0 -4.105535,0 0,-3.7922 0,-3.79215 4.418338,0 4.418339,0 0,-1.2119 0,-1.212 -5.78685,0 -5.78685,0 0,11.41565 0,11.4157 6.060552,0 6.060553,0 0,-1.251 z m 11.280156,-8.9332 0.01984,-10.18411 3.30398,-0.02 3.303978,-0.02 0,-1.2111 0,-1.2111 -7.937369,0 -7.937369,0 0,1.2119 0,1.21191 3.284429,0 3.284428,0 0,10.20384 0,10.2037 1.329121,0 1.329119,0 0.01984,-10.1842 z"
       id="path4149"
       inkscape:connector-curvature="0" />
  </g>
</svg>
