<?xml version="1.0" encoding="UTF-8" standalone="no"?>
<!-- Created with Inkscape (http://www.inkscape.org/) -->

<svg
   xmlns:dc="http://purl.org/dc/elements/1.1/"
   xmlns:cc="http://creativecommons.org/ns#"
   xmlns:rdf="http://www.w3.org/1999/02/22-rdf-syntax-ns#"
   xmlns:svg="http://www.w3.org/2000/svg"
   xmlns="http://www.w3.org/2000/svg"
   xmlns:sodipodi="http://sodipodi.sourceforge.net/DTD/sodipodi-0.dtd"
   xmlns:inkscape="http://www.inkscape.org/namespaces/inkscape"
   inkscape:version="0.91 r13725"
   version="1.1"
   id="svg2"
   viewBox="0 0 210 30.000001"
   height="30"
   width="210"
   sodipodi:docname="auxiliumweb_logo_color.svg"
   inkscape:export-filename="C:\ionic\Luis_Cabrera_LLC\auxilium-web\src\assets\images\landing\logo\auxiliumweb_logo_color.png"
   inkscape:export-xdpi="90"
   inkscape:export-ydpi="90">
  <defs
     id="defs4">
    <pattern
       y="0"
       x="0"
       height="6"
       width="6"
       patternUnits="userSpaceOnUse"
       id="EMFhbasepattern" />
    <clipPath
       clipPathUnits="userSpaceOnUse"
       id="clipPath4263">
      <path
         style="fill:#00ffff"
         d="m -1930.5709,-377.49414 0,144.55859 0,144.56055 842,0 842.00003,0 0,-144.56055 0,-144.55859 -842.00003,0 -842,0 z m 556.0332,35.60937 c 4.3087,0.0859 8.6274,1.72172 12.7032,4.92774 12.5964,9.90831 11.0836,27.98843 -3.041,36.33203 -8.7536,5.1709 -11.9886,5.22216 -20.9961,0.33398 -14.0961,-7.64967 -16.1711,-22.80936 -4.6953,-34.28515 4.968,-4.968 10.4896,-7.41906 16.0292,-7.3086 z m 128.3965,0.69727 c 8.9303,-0.0664 19.3114,4.81765 21.5782,10.72461 3.9862,10.38804 1.5943,20.97778 -6.2266,27.55859 -4.2916,3.61119 -10.4807,6.56641 -13.7539,6.56641 -3.2731,0 -9.4642,-2.95522 -13.7559,-6.56641 -6.1163,-5.14652 -7.8027,-8.58728 -7.8027,-15.91992 0,-12.26356 5.7455,-20.04887 16.25,-22.01953 1.1886,-0.22299 2.4352,-0.33426 3.7109,-0.34375 z m -85.9004,1.73438 21.5567,0 21.5586,0 0,87.49804 0,87.4961 -19.8672,0 c -10.9265,0 -20.6268,-0.76149 -21.5567,-1.69141 -0.9299,-0.92992 -1.6914,-40.30266 -1.6914,-87.49609 l 0,-85.80664 z m 879.97659,0 21.58985,0 21.58984,0 0,30.29101 0,30.29102 11.8457,-5.23829 c 9.0126,-3.9867 15.00972,-4.91395 25.07618,-3.875 24.49355,2.52796 41.19328,14.9226 49.30078,36.5918 11.99163,32.05049 0.77615,68.53029 -25.13282,81.74805 -17.76448,9.06277 -42.62932,8.68173 -57.2207,-0.87891 -6.13501,-4.0198 -6.4043,-3.9765 -6.4043,1.04102 0,4.90567 -1.24617,5.18989 -19.65625,4.49609 l -19.65429,-0.74023 -0.66797,-86.86328 -0.66602,-86.86328 z m -370.30273,7.60937 c 19.3308,0 22.75518,0.63701 23.83008,4.4375 0.6905,2.44103 6.70654,28.11466 13.36914,57.05273 6.6626,28.93806 12.82892,51.76313 13.70312,50.72266 1.2819,-1.52579 19.64867,-63.4208 30.75977,-103.66211 l 2.36133,-8.55078 18.42968,0 18.43164,0 16.14844,57.02539 c 8.88135,31.36416 16.6837,56.48817 17.33985,55.83203 0.65613,-0.65615 7.09574,-26.03132 14.30859,-56.39062 l 13.11328,-55.19922 22.00586,-0.73242 c 15.88796,-0.52904 22.00781,0.11668 22.00781,2.32421 0,3.87437 -38.13875,160.05909 -39.71094,162.62305 -0.64149,1.04616 -13.59339,1.90235 -28.78124,1.90235 l -27.61524,0 -11.69141,-37.40821 c -6.431,-20.57447 -12.57589,-40.25173 -13.65429,-43.72851 -1.62703,-5.24573 -3.55906,-1.14741 -11.35938,24.09179 -5.16992,16.72814 -11.36623,36.12131 -13.76953,43.09571 l -4.37109,12.68164 -28.2168,0.71484 -28.21875,0.71289 -19.48437,-80.60156 c -10.7167,-44.33163 -19.94095,-82.02984 -20.49805,-83.77344 -0.7588,-2.37458 4.6532,-3.16992 21.5625,-3.16992 z m -989.60156,1.26758 27.3359,0 27.336,0 28.5879,77.99414 c 15.7242,42.89678 29.3285,80.3187 30.2304,83.16015 1.5754,4.96365 0.7721,5.13853 -20.4492,4.43165 l -22.0879,-0.73633 -5.3886,-15.2168 -5.3887,-15.2168 -32.9492,0 -32.9492,0 -5.3907,15.2168 -5.3886,15.2168 -22.0879,0.73633 c -20.2628,0.67495 -21.9648,0.36018 -20.5957,-3.80469 0.8208,-2.49697 14.4744,-39.9189 30.3398,-83.16016 l 28.8457,-78.62109 z m 27.7148,38.22851 -8.4511,23.41797 c -4.6482,12.87936 -9.1612,26.24599 -10.0293,29.70508 -1.5767,6.28225 -1.5574,6.28906 17.7168,6.28906 10.6128,0 19.2969,-0.85294 19.2969,-1.89648 0,-1.04355 -4.1711,-14.41213 -9.2676,-29.70703 l -9.2657,-27.8086 z m 808.54106,3.74414 c 11.8897,-0.15185 26.73171,4.81759 32.94531,11.03125 l 5.66601,5.66602 6.73047,-5.78906 c 19.5317,-16.80049 57.8416,-12.71703 70.1543,7.47656 4.4565,7.30883 4.95094,12.99218 4.96094,56.93945 l 0.01,48.82032 -20.28906,0 -20.28906,0 0,-40.57813 c 0,-37.19679 -0.42267,-41.00079 -5.07227,-45.65039 -6.7869,-6.78696 -15.92798,-6.3993 -24.58008,1.04297 l -7.10937,6.11523 -0.91016,39.53516 -0.91211,39.53516 -20.01757,0 -20.01954,0 0,-40.57813 c 0,-37.19679 -0.42266,-41.00079 -5.07226,-45.65039 -10.2254,-10.22548 -25.84861,-3.97987 -30.32031,12.12109 -1.4413,5.18967 -2.6248,23.98678 -2.6348,41.77149 l 0,0 -0.016,32.33594 -20.289,0 -20.2891,0 0,-60.86719 0,-60.86719 20.2891,0 c 20.2672,0 20.289,0.006 20.289,6.73242 0,6.49595 0.1735,6.57682 4.9043,2.29492 6.2403,-5.64737 22.0255,-11.31178 31.8692,-11.4375 z m 450.16601,1.25586 c 36.31158,0.006 56.49854,18.70882 58.72852,54.41211 l 0.87109,13.94922 -42.48047,0.69531 c -45.07421,0.73782 -46.56335,1.22472 -38.60156,12.5918 7.63491,10.90037 30.89248,12.53008 37.8125,2.65039 3.17188,-4.52852 5.31903,-4.82891 22.75195,-3.19531 10.58737,0.99212 19.25,2.28588 19.25,2.875 0,3.18379 -10.27935,20.49793 -14.35937,24.1875 -2.61456,2.36434 -9.86923,6.61925 -16.1211,9.45508 -13.4504,6.10103 -41.60601,6.92384 -56.38867,1.64844 -24.73948,-8.82864 -37.72555,-28.13571 -38.08984,-56.63086 -0.26579,-20.78765 5.93968,-36.37537 19.06836,-47.90235 12.32295,-10.81957 24.97719,-14.74033 47.55859,-14.73633 z m -1037.19137,0.94727 -0.6797,60.33594 -0.6797,60.33789 -19.0215,0 c -17.6374,0 -19.0778,-0.40466 -19.8105,-5.55274 l -0.791,-5.55078 -11.6348,6.18555 c -22.5138,11.97072 -55.2335,7.21745 -67.7617,-9.84375 -4.8084,-6.54814 -5.3222,-11.32077 -6.0801,-56.42969 l -0.8281,-49.27539 20.4843,0 20.4825,0 0.1796,31.06836 c 0.2107,36.18496 1.5511,49.86492 5.3282,54.41602 4.1983,5.05864 23.3842,4.07236 30.3515,-1.56055 5.7066,-4.61373 6.0453,-6.66374 7.2539,-43.74805 l 1.2696,-38.9082 20.9687,-0.73633 20.9688,-0.73828 z m 7.1484,0.20703 25.5508,0 25.5508,0 11.6465,15.84961 c 6.4058,8.71799 11.9777,16.19467 12.3808,16.61328 0.403,0.41862 6.2212,-6.71495 12.9297,-15.85156 l 12.1973,-16.61133 24.873,0 c 13.6798,0 24.8711,0.52531 24.8711,1.16797 0,0.64267 -10.8849,13.92214 -24.1894,29.50977 -13.3045,15.58764 -23.8609,29.30608 -23.459,30.48437 0.4019,1.17829 11.2868,14.65038 24.1894,29.93945 12.9026,15.28907 23.459,28.43736 23.459,29.2168 0,0.77944 -11.2225,1.41602 -24.9394,1.41602 l -24.9395,0 -9.5195,-13.82227 c -14.64,-21.25666 -14.273,-21.22102 -27.6563,-2.61719 l -11.8261,16.43946 -25.5254,0 c -16.5312,0 -24.9682,-0.90239 -23.9434,-2.56055 0.8703,-1.40815 12.2836,-15.2783 25.3613,-30.82227 l 23.7774,-28.26172 -19.5039,-22.66992 c -10.7272,-12.46831 -22.155,-25.98825 -25.3946,-30.04492 l -5.8906,-7.375 z m 160.1445,0 20.2911,0 20.289,0 0,60.86719 0,60.86719 -20.289,0 -20.2911,0 0,-60.86719 0,-60.86719 z m 129.3438,0 21.6035,0 21.6035,0 -0.6797,60.23242 -0.6797,60.23438 -19.1367,0.73047 c -10.5243,0.40224 -19.9384,-0.0732 -20.9218,-1.05664 -0.9835,-0.98344 -1.7891,-28.41766 -1.7891,-60.96485 l 0,-59.17578 z m 63.1035,0 20.2168,0 20.2168,0 0.8574,40.19336 c 0.9885,46.36753 1.8514,48.57227 19.0352,48.57227 8.5283,0 12.7086,-1.4938 17.4414,-6.22657 6.0577,-6.05767 6.2265,-7.25149 6.2265,-44.38281 l 0,-38.15625 21.6016,0 21.6035,0 -0.6797,60.23242 -0.6796,60.23438 -19.0215,0 c -17.6375,0 -19.0779,-0.40466 -19.8106,-5.55274 l -0.791,-5.55078 -11.6348,6.18555 c -22.5131,11.97034 -55.2322,7.2166 -67.7617,-9.84375 -4.8126,-6.55298 -5.3181,-11.27801 -6.0371,-56.42774 l -0.7832,-49.27734 z m 673.91601,27.89648 c -10.24421,10e-6 -19.29101,5.53721 -19.29101,11.80665 0,2.57316 4.98607,3.41015 20.29101,3.41015 15.98977,0 20.28907,-0.7754 20.28907,-3.66015 0,-5.87891 -10.45968,-11.55665 -21.28907,-11.55665 z m 143.46876,4.88672 c -6.48966,-0.0868 -13.10812,2.3132 -18.39454,7.59961 -6.27582,6.27582 -7.41211,9.41913 -7.41211,20.48438 0,11.06526 1.13629,14.20855 7.41211,20.48437 19.87645,19.87645 50.78172,-1.13381 43.01954,-29.24609 -3.34762,-12.12405 -13.80892,-19.17763 -24.625,-19.32227 z"
         id="path4265"
         inkscape:connector-curvature="0" />
    </clipPath>
  </defs>
  <sodipodi:namedview
     inkscape:window-maximized="1"
     inkscape:window-y="-8"
     inkscape:window-x="-8"
     inkscape:window-height="1027"
     inkscape:window-width="1920"
     showgrid="false"
     inkscape:current-layer="layer1"
     inkscape:document-units="px"
     inkscape:cy="7.5094119"
     inkscape:cx="158.12099"
     inkscape:zoom="3.9597979"
     inkscape:pageshadow="2"
     inkscape:pageopacity="0.0"
     borderopacity="1.0"
     bordercolor="#666666"
     pagecolor="#ffffff"
     id="base"
     showguides="false"
     units="px">
    <inkscape:grid
       type="xygrid"
       id="grid4447" />
  </sodipodi:namedview>
  <metadata
     id="metadata7">
    <rdf:RDF>
      <cc:Work
         rdf:about="">
        <dc:format>image/svg+xml</dc:format>
        <dc:type
           rdf:resource="http://purl.org/dc/dcmitype/StillImage" />
        <dc:title></dc:title>
      </cc:Work>
    </rdf:RDF>
  </metadata>
  <g
     inkscape:label="Layer 1"
     inkscape:groupmode="layer"
     id="layer1"
     transform="translate(0,-1022.3621)">
    <g
       id="g4347"
       transform="matrix(0.988557,0,0,0.988557,0.00357402,22.381519)"
       style="fill:#f9f9f9"
       inkscape:export-xdpi="90"
       inkscape:export-ydpi="90">
      <flowRoot
         transform="matrix(0.68267823,0,0,0.75742567,1919.6836,588.13566)"
         style="font-style:normal;font-weight:normal;font-size:40px;line-height:125%;font-family:sans-serif;letter-spacing:0px;word-spacing:0px;fill:#f9f9f9;fill-opacity:1;stroke:none;stroke-width:1px;stroke-linecap:butt;stroke-linejoin:miter;stroke-opacity:1"
         id="flowRoot4475"
         xml:space="preserve"><flowRegion
           id="flowRegion4477"><rect
             style="fill:#f9f9f9;fill-opacity:1"
             y="552.36218"
             x="-2530"
             height="140"
             width="600"
             id="rect4479" /></flowRegion><flowPara
           style="font-style:normal;font-variant:normal;font-weight:bold;font-stretch:normal;font-size:40px;line-height:125%;font-family:sans-serif;-inkscape-font-specification:'sans-serif, Bold';text-align:start;writing-mode:lr-tb;text-anchor:start;fill:#f9f9f9;fill-opacity:1"
           id="flowPara4481">B</flowPara></flowRoot>      <flowRoot
         transform="matrix(0.75737541,0,0,0.75737541,1916.1171,588.17026)"
         style="font-style:normal;font-weight:normal;font-size:40px;line-height:125%;font-family:sans-serif;letter-spacing:0px;word-spacing:0px;fill:#f9f9f9;fill-opacity:1;stroke:none;stroke-width:1px;stroke-linecap:butt;stroke-linejoin:miter;stroke-opacity:1"
         id="flowRoot4475-2"
         xml:space="preserve"><flowRegion
           id="flowRegion4477-2"><rect
             style="fill:#f9f9f9"
             y="552.36218"
             x="-2530"
             height="140"
             width="600"
             id="rect4479-6" /></flowRegion><flowPara
           style="font-style:normal;font-variant:normal;font-weight:bold;font-stretch:normal;font-size:40px;line-height:125%;font-family:sans-serif;-inkscape-font-specification:'sans-serif, Bold';text-align:start;writing-mode:lr-tb;text-anchor:start;fill:#f9f9f9"
           id="flowPara4481-2">A</flowPara></flowRoot>      <flowRoot
         transform="matrix(0.73942938,0,0,0.74203133,1892.4183,596.83759)"
         style="font-style:normal;font-weight:normal;font-size:40px;line-height:125%;font-family:sans-serif;letter-spacing:0px;word-spacing:0px;fill:#f9f9f9;fill-opacity:1;stroke:none;stroke-width:1px;stroke-linecap:butt;stroke-linejoin:miter;stroke-opacity:1"
         id="flowRoot4475-6"
         xml:space="preserve"><flowRegion
           id="flowRegion4477-6"><rect
             style="fill:#f9f9f9"
             y="552.36218"
             x="-2530"
             height="140"
             width="600"
             id="rect4479-1" /></flowRegion><flowPara
           style="font-style:normal;font-variant:normal;font-weight:bold;font-stretch:normal;font-size:40px;line-height:125%;font-family:sans-serif;-inkscape-font-specification:'sans-serif, Bold';text-align:start;writing-mode:lr-tb;text-anchor:start;fill:#f9f9f9"
           id="flowPara4481-21">U</flowPara></flowRoot>      <flowRoot
         transform="matrix(0.63080327,0,0,0.75617171,1640.9716,588.89604)"
         style="font-style:normal;font-weight:normal;font-size:40px;line-height:125%;font-family:sans-serif;letter-spacing:0px;word-spacing:0px;fill:#f9f9f9;fill-opacity:1;stroke:none;stroke-width:1px;stroke-linecap:butt;stroke-linejoin:miter;stroke-opacity:1"
         id="flowRoot4475-0"
         xml:space="preserve"><flowRegion
           id="flowRegion4477-7"><rect
             style="fill:#f9f9f9"
             y="552.36218"
             x="-2530"
             height="140"
             width="600"
             id="rect4479-9" /></flowRegion><flowPara
           style="font-style:normal;font-variant:normal;font-weight:bold;font-stretch:normal;font-size:40px;line-height:125%;font-family:sans-serif;-inkscape-font-specification:'sans-serif, Bold';text-align:start;writing-mode:lr-tb;text-anchor:start;fill:#f9f9f9"
           id="flowPara4481-8">X</flowPara></flowRoot>      <flowRoot
         transform="matrix(0.74660254,0,0,0.75678035,1962.9239,588.51916)"
         style="font-style:normal;font-weight:normal;font-size:40px;line-height:125%;font-family:sans-serif;letter-spacing:0px;word-spacing:0px;fill:#f9f9f9;fill-opacity:1;stroke:none;stroke-width:1px;stroke-linecap:butt;stroke-linejoin:miter;stroke-opacity:1"
         id="flowRoot4475-1"
         xml:space="preserve"><flowRegion
           id="flowRegion4477-1"><rect
             style="fill:#f9f9f9"
             y="552.36218"
             x="-2530"
             height="140"
             width="600"
             id="rect4479-97" /></flowRegion><flowPara
           style="font-style:normal;font-variant:normal;font-weight:bold;font-stretch:normal;font-size:40px;line-height:125%;font-family:sans-serif;-inkscape-font-specification:'sans-serif, Bold';text-align:start;writing-mode:lr-tb;text-anchor:start;fill:#f9f9f9"
           id="flowPara4481-4">L</flowPara></flowRoot>      <flowRoot
         transform="matrix(0.70074801,0,0,0.75745947,1889.0957,588.11658)"
         style="font-style:normal;font-weight:normal;font-size:40px;line-height:125%;font-family:sans-serif;letter-spacing:0px;word-spacing:0px;fill:#f9f9f9;fill-opacity:1;stroke:none;stroke-width:1px;stroke-linecap:butt;stroke-linejoin:miter;stroke-opacity:1"
         id="flowRoot4475-66"
         xml:space="preserve"><flowRegion
           id="flowRegion4477-15"><rect
             style="fill:#f9f9f9"
             y="552.36218"
             x="-2530"
             height="140"
             width="600"
             id="rect4479-63" /></flowRegion><flowPara
           style="font-style:normal;font-variant:normal;font-weight:bold;font-stretch:normal;font-size:40px;line-height:125%;font-family:sans-serif;-inkscape-font-specification:'sans-serif, Bold';text-align:start;writing-mode:lr-tb;text-anchor:start;fill:#f9f9f9"
           id="flowPara4481-86">M</flowPara></flowRoot>      <path
         sodipodi:nodetypes="ccccc"
         inkscape:connector-curvature="0"
         id="path4149-10-4-2"
         d="m 67.064728,1037.8787 -0.03083,-22.0609 5.546787,0 -0.0027,22.0578 z"
         style="fill:#f9f9f9" />
      <path
         sodipodi:nodetypes="ccccc"
         inkscape:connector-curvature="0"
         id="path4149-10-4-2-4"
         d="m 86.921739,1030.5536 -0.031,-14.7302 5.577692,0 -0.0027,14.7281 z"
         style="fill:#f9f9f9" />
      <flowRoot
         transform="matrix(0.73942938,0,0,0.74203133,1964.1997,596.84334)"
         style="font-style:normal;font-weight:normal;font-size:40px;line-height:125%;font-family:sans-serif;letter-spacing:0px;word-spacing:0px;fill:#f9f9f9;fill-opacity:1;stroke:none;stroke-width:1px;stroke-linecap:butt;stroke-linejoin:miter;stroke-opacity:1"
         id="flowRoot4475-6-3"
         xml:space="preserve"><flowRegion
           id="flowRegion4477-6-9"><rect
             style="fill:#f9f9f9"
             y="552.36218"
             x="-2530"
             height="140"
             width="600"
             id="rect4479-1-3" /></flowRegion><flowPara
           style="font-style:normal;font-variant:normal;font-weight:bold;font-stretch:normal;font-size:40px;line-height:125%;font-family:sans-serif;-inkscape-font-specification:'sans-serif, Bold';text-align:start;writing-mode:lr-tb;text-anchor:start;fill:#f9f9f9"
           id="flowPara4481-21-1">U</flowPara></flowRoot>      <flowRoot
         transform="matrix(0.68267823,0,0,0.75742567,1874.8824,588.13566)"
         style="font-style:normal;font-weight:normal;font-size:40px;line-height:125%;font-family:sans-serif;letter-spacing:0px;word-spacing:0px;fill:#f9f9f9;fill-opacity:1;stroke:none;stroke-width:1px;stroke-linecap:butt;stroke-linejoin:miter;stroke-opacity:1"
         id="flowRoot4475-8"
         xml:space="preserve"><flowRegion
           id="flowRegion4477-4"><rect
             style="fill:#f9f9f9;fill-opacity:1"
             y="552.36218"
             x="-2530"
             height="140"
             width="600"
             id="rect4479-62" /></flowRegion><flowPara
           style="font-style:normal;font-variant:normal;font-weight:bold;font-stretch:normal;font-size:40px;line-height:125%;font-family:sans-serif;-inkscape-font-specification:'sans-serif, Bold';text-align:start;writing-mode:lr-tb;text-anchor:start;fill:#f9f9f9;fill-opacity:1"
           id="flowPara4481-40">W</flowPara></flowRoot>      <flowRoot
         transform="matrix(0.68267823,0,0,0.75742567,1903.285,588.13566)"
         style="font-style:normal;font-weight:normal;font-size:40px;line-height:125%;font-family:sans-serif;letter-spacing:0px;word-spacing:0px;fill:#f9f9f9;fill-opacity:1;stroke:none;stroke-width:1px;stroke-linecap:butt;stroke-linejoin:miter;stroke-opacity:1"
         id="flowRoot4475-4"
         xml:space="preserve"><flowRegion
           id="flowRegion4477-3"><rect
             style="fill:#f9f9f9;fill-opacity:1"
             y="552.36218"
             x="-2530"
             height="140"
             width="600"
             id="rect4479-5" /></flowRegion><flowPara
           style="font-style:normal;font-variant:normal;font-weight:bold;font-stretch:normal;font-size:40px;line-height:125%;font-family:sans-serif;-inkscape-font-specification:'sans-serif, Bold';text-align:start;writing-mode:lr-tb;text-anchor:start;fill:#f9f9f9;fill-opacity:1"
           id="flowPara4481-1">E</flowPara></flowRoot>    </g>
  </g>
</svg>
